<?xml version="1.0" encoding="UTF-8"?>
<svg data-bbox="0 0 556 376" xmlns="http://www.w3.org/2000/svg" viewBox="0 0 556 376" height="376" width="556" data-type="ugc">
    <g>
        <path fill="url(#7ee349c1-c285-476d-85fa-f4bbe359574d)" d="M530 0c14.359 0 26 11.64 26 26v349a1 1 0 0 1-1 1H1a1 1 0 0 1-1-1V26C0 11.64 11.64 0 26 0zM28 37c-8.837 0-16 7.163-16 16v296.638C12 359.779 20.22 368 30.362 368h495.276c10.141 0 18.362-8.221 18.362-18.362V53c0-8.837-7.163-16-16-16z"/>
        <path fill-opacity=".4" fill="#ffffff" d="M31 19a4 4 0 1 1-8 0 4 4 0 0 1 8 0"/>
        <path fill-opacity=".4" fill="#ffffff" d="M45 19a4 4 0 1 1-8 0 4 4 0 0 1 8 0"/>
        <path fill-opacity=".4" fill="#ffffff" d="M59 19a4 4 0 1 1-8 0 4 4 0 0 1 8 0"/>
        <defs fill="none">
            <linearGradient gradientUnits="userSpaceOnUse" y2="376.415" x2="290.055" y1=".478" x1="290.055" id="7ee349c1-c285-476d-85fa-f4bbe359574d">
                <stop stop-color="#015293"/>
                <stop stop-color="#ffffff" offset="1"/>
            </linearGradient>
        </defs>
    </g>
</svg>
